<mxfile host="app.diagrams.net" agent="Mozilla/5.0 (Windows NT 10.0; Win64; x64) AppleWebKit/537.36 (KHTML, like Gecko) Chrome/138.0.0.0 Safari/537.36" version="28.0.5">
  <diagram name="Pagina-1" id="CWtKIR6qDgWhordfSGdM">
    <mxGraphModel dx="1489" dy="753" grid="1" gridSize="10" guides="1" tooltips="1" connect="1" arrows="1" fold="1" page="1" pageScale="1" pageWidth="2339" pageHeight="3300" math="0" shadow="0">
      <root>
        <mxCell id="0" />
        <mxCell id="1" parent="0" />
        <mxCell id="4qUPRxpnoBLBH63eIWVk-262" value="" style="group" vertex="1" connectable="0" parent="1">
          <mxGeometry x="320" y="460" width="470" height="90" as="geometry" />
        </mxCell>
        <mxCell id="4qUPRxpnoBLBH63eIWVk-263" value="" style="group;strokeWidth=2;" vertex="1" connectable="0" parent="4qUPRxpnoBLBH63eIWVk-262">
          <mxGeometry x="70" width="320" height="40" as="geometry" />
        </mxCell>
        <mxCell id="4qUPRxpnoBLBH63eIWVk-264" value="" style="rounded=0;whiteSpace=wrap;html=1;strokeWidth=2;" vertex="1" parent="4qUPRxpnoBLBH63eIWVk-263">
          <mxGeometry width="20" height="40" as="geometry" />
        </mxCell>
        <mxCell id="4qUPRxpnoBLBH63eIWVk-265" value="" style="rounded=0;whiteSpace=wrap;html=1;strokeWidth=2;" vertex="1" parent="4qUPRxpnoBLBH63eIWVk-263">
          <mxGeometry x="20" width="20" height="40" as="geometry" />
        </mxCell>
        <mxCell id="4qUPRxpnoBLBH63eIWVk-266" value="" style="rounded=0;whiteSpace=wrap;html=1;strokeWidth=2;" vertex="1" parent="4qUPRxpnoBLBH63eIWVk-263">
          <mxGeometry x="40" width="20" height="40" as="geometry" />
        </mxCell>
        <mxCell id="4qUPRxpnoBLBH63eIWVk-267" value="" style="rounded=0;whiteSpace=wrap;html=1;strokeWidth=2;" vertex="1" parent="4qUPRxpnoBLBH63eIWVk-263">
          <mxGeometry x="60" width="20" height="40" as="geometry" />
        </mxCell>
        <mxCell id="4qUPRxpnoBLBH63eIWVk-268" value="" style="rounded=0;whiteSpace=wrap;html=1;strokeWidth=2;" vertex="1" parent="4qUPRxpnoBLBH63eIWVk-263">
          <mxGeometry x="80" width="20" height="40" as="geometry" />
        </mxCell>
        <mxCell id="4qUPRxpnoBLBH63eIWVk-269" value="" style="rounded=0;whiteSpace=wrap;html=1;strokeWidth=2;" vertex="1" parent="4qUPRxpnoBLBH63eIWVk-263">
          <mxGeometry x="100" width="20" height="40" as="geometry" />
        </mxCell>
        <mxCell id="4qUPRxpnoBLBH63eIWVk-270" value="" style="rounded=0;whiteSpace=wrap;html=1;strokeWidth=2;" vertex="1" parent="4qUPRxpnoBLBH63eIWVk-263">
          <mxGeometry x="120" width="20" height="40" as="geometry" />
        </mxCell>
        <mxCell id="4qUPRxpnoBLBH63eIWVk-271" value="" style="rounded=0;whiteSpace=wrap;html=1;strokeWidth=2;" vertex="1" parent="4qUPRxpnoBLBH63eIWVk-263">
          <mxGeometry x="140" width="20" height="40" as="geometry" />
        </mxCell>
        <mxCell id="4qUPRxpnoBLBH63eIWVk-272" value="" style="rounded=0;whiteSpace=wrap;html=1;strokeWidth=2;" vertex="1" parent="4qUPRxpnoBLBH63eIWVk-263">
          <mxGeometry x="160" width="20" height="40" as="geometry" />
        </mxCell>
        <mxCell id="4qUPRxpnoBLBH63eIWVk-273" value="" style="rounded=0;whiteSpace=wrap;html=1;strokeWidth=2;" vertex="1" parent="4qUPRxpnoBLBH63eIWVk-263">
          <mxGeometry x="180" width="20" height="40" as="geometry" />
        </mxCell>
        <mxCell id="4qUPRxpnoBLBH63eIWVk-274" value="" style="rounded=0;whiteSpace=wrap;html=1;strokeWidth=2;" vertex="1" parent="4qUPRxpnoBLBH63eIWVk-263">
          <mxGeometry x="200" width="20" height="40" as="geometry" />
        </mxCell>
        <mxCell id="4qUPRxpnoBLBH63eIWVk-275" value="" style="rounded=0;whiteSpace=wrap;html=1;strokeWidth=2;" vertex="1" parent="4qUPRxpnoBLBH63eIWVk-263">
          <mxGeometry x="220" width="20" height="40" as="geometry" />
        </mxCell>
        <mxCell id="4qUPRxpnoBLBH63eIWVk-276" value="" style="rounded=0;whiteSpace=wrap;html=1;strokeWidth=2;" vertex="1" parent="4qUPRxpnoBLBH63eIWVk-263">
          <mxGeometry x="240" width="20" height="40" as="geometry" />
        </mxCell>
        <mxCell id="4qUPRxpnoBLBH63eIWVk-277" value="" style="rounded=0;whiteSpace=wrap;html=1;strokeWidth=2;" vertex="1" parent="4qUPRxpnoBLBH63eIWVk-263">
          <mxGeometry x="260" width="20" height="40" as="geometry" />
        </mxCell>
        <mxCell id="4qUPRxpnoBLBH63eIWVk-278" value="" style="rounded=0;whiteSpace=wrap;html=1;strokeWidth=2;" vertex="1" parent="4qUPRxpnoBLBH63eIWVk-263">
          <mxGeometry x="280" width="20" height="40" as="geometry" />
        </mxCell>
        <mxCell id="4qUPRxpnoBLBH63eIWVk-279" value="" style="rounded=0;whiteSpace=wrap;html=1;strokeWidth=2;" vertex="1" parent="4qUPRxpnoBLBH63eIWVk-263">
          <mxGeometry x="300" width="20" height="40" as="geometry" />
        </mxCell>
        <mxCell id="4qUPRxpnoBLBH63eIWVk-281" value="" style="endArrow=none;html=1;rounded=0;entryX=0.5;entryY=1;entryDx=0;entryDy=0;" edge="1" parent="4qUPRxpnoBLBH63eIWVk-262" target="4qUPRxpnoBLBH63eIWVk-265">
          <mxGeometry width="50" height="50" relative="1" as="geometry">
            <mxPoint x="110" y="120" as="sourcePoint" />
            <mxPoint x="220" y="120" as="targetPoint" />
            <Array as="points">
              <mxPoint x="20" y="90" />
            </Array>
          </mxGeometry>
        </mxCell>
        <mxCell id="4qUPRxpnoBLBH63eIWVk-282" value="" style="rounded=0;whiteSpace=wrap;html=1;" vertex="1" parent="4qUPRxpnoBLBH63eIWVk-262">
          <mxGeometry x="60" y="70" width="20" height="20" as="geometry" />
        </mxCell>
        <mxCell id="4qUPRxpnoBLBH63eIWVk-283" value="" style="endArrow=none;html=1;rounded=0;entryX=0.5;entryY=1;entryDx=0;entryDy=0;exitX=0.5;exitY=0;exitDx=0;exitDy=0;" edge="1" parent="4qUPRxpnoBLBH63eIWVk-262" source="4qUPRxpnoBLBH63eIWVk-282" target="4qUPRxpnoBLBH63eIWVk-266">
          <mxGeometry width="50" height="50" relative="1" as="geometry">
            <mxPoint x="170" y="170" as="sourcePoint" />
            <mxPoint x="220" y="120" as="targetPoint" />
          </mxGeometry>
        </mxCell>
        <mxCell id="4qUPRxpnoBLBH63eIWVk-284" value="" style="rounded=0;whiteSpace=wrap;html=1;" vertex="1" parent="4qUPRxpnoBLBH63eIWVk-262">
          <mxGeometry x="120" y="70" width="20" height="20" as="geometry" />
        </mxCell>
        <mxCell id="4qUPRxpnoBLBH63eIWVk-285" value="" style="endArrow=none;html=1;rounded=0;entryX=0.5;entryY=1;entryDx=0;entryDy=0;exitX=0.5;exitY=0;exitDx=0;exitDy=0;" edge="1" parent="4qUPRxpnoBLBH63eIWVk-262" source="4qUPRxpnoBLBH63eIWVk-284" target="4qUPRxpnoBLBH63eIWVk-268">
          <mxGeometry width="50" height="50" relative="1" as="geometry">
            <mxPoint x="170" y="170" as="sourcePoint" />
            <mxPoint x="220" y="120" as="targetPoint" />
          </mxGeometry>
        </mxCell>
        <mxCell id="4qUPRxpnoBLBH63eIWVk-286" value="" style="rounded=0;whiteSpace=wrap;html=1;" vertex="1" parent="4qUPRxpnoBLBH63eIWVk-262">
          <mxGeometry x="150" y="70" width="20" height="20" as="geometry" />
        </mxCell>
        <mxCell id="4qUPRxpnoBLBH63eIWVk-287" value="" style="endArrow=none;html=1;rounded=0;entryX=0.5;entryY=1;entryDx=0;entryDy=0;exitX=0.5;exitY=0;exitDx=0;exitDy=0;" edge="1" parent="4qUPRxpnoBLBH63eIWVk-262" source="4qUPRxpnoBLBH63eIWVk-286" target="4qUPRxpnoBLBH63eIWVk-269">
          <mxGeometry width="50" height="50" relative="1" as="geometry">
            <mxPoint x="170" y="170" as="sourcePoint" />
            <mxPoint x="220" y="120" as="targetPoint" />
          </mxGeometry>
        </mxCell>
        <mxCell id="4qUPRxpnoBLBH63eIWVk-288" value="" style="rounded=0;whiteSpace=wrap;html=1;" vertex="1" parent="4qUPRxpnoBLBH63eIWVk-262">
          <mxGeometry x="180" y="70" width="20" height="20" as="geometry" />
        </mxCell>
        <mxCell id="4qUPRxpnoBLBH63eIWVk-289" value="" style="endArrow=none;html=1;rounded=0;entryX=0.5;entryY=1;entryDx=0;entryDy=0;exitX=0.5;exitY=0;exitDx=0;exitDy=0;" edge="1" parent="4qUPRxpnoBLBH63eIWVk-262" source="4qUPRxpnoBLBH63eIWVk-288" target="4qUPRxpnoBLBH63eIWVk-270">
          <mxGeometry width="50" height="50" relative="1" as="geometry">
            <mxPoint x="170" y="170" as="sourcePoint" />
            <mxPoint x="220" y="120" as="targetPoint" />
          </mxGeometry>
        </mxCell>
        <mxCell id="4qUPRxpnoBLBH63eIWVk-290" value="" style="rounded=0;whiteSpace=wrap;html=1;" vertex="1" parent="4qUPRxpnoBLBH63eIWVk-262">
          <mxGeometry x="210" y="70" width="20" height="20" as="geometry" />
        </mxCell>
        <mxCell id="4qUPRxpnoBLBH63eIWVk-291" value="" style="endArrow=none;html=1;rounded=0;entryX=0.5;entryY=1;entryDx=0;entryDy=0;exitX=0.5;exitY=0;exitDx=0;exitDy=0;" edge="1" parent="4qUPRxpnoBLBH63eIWVk-262" source="4qUPRxpnoBLBH63eIWVk-290" target="4qUPRxpnoBLBH63eIWVk-271">
          <mxGeometry width="50" height="50" relative="1" as="geometry">
            <mxPoint x="170" y="170" as="sourcePoint" />
            <mxPoint x="220" y="120" as="targetPoint" />
          </mxGeometry>
        </mxCell>
        <mxCell id="4qUPRxpnoBLBH63eIWVk-292" value="" style="rounded=0;whiteSpace=wrap;html=1;" vertex="1" parent="4qUPRxpnoBLBH63eIWVk-262">
          <mxGeometry x="240" y="70" width="20" height="20" as="geometry" />
        </mxCell>
        <mxCell id="4qUPRxpnoBLBH63eIWVk-293" value="" style="endArrow=none;html=1;rounded=0;entryX=0.5;entryY=1;entryDx=0;entryDy=0;exitX=0.5;exitY=0;exitDx=0;exitDy=0;" edge="1" parent="4qUPRxpnoBLBH63eIWVk-262" source="4qUPRxpnoBLBH63eIWVk-292" target="4qUPRxpnoBLBH63eIWVk-272">
          <mxGeometry width="50" height="50" relative="1" as="geometry">
            <mxPoint x="170" y="170" as="sourcePoint" />
            <mxPoint x="220" y="120" as="targetPoint" />
          </mxGeometry>
        </mxCell>
        <mxCell id="4qUPRxpnoBLBH63eIWVk-294" value="" style="rounded=0;whiteSpace=wrap;html=1;" vertex="1" parent="4qUPRxpnoBLBH63eIWVk-262">
          <mxGeometry x="270" y="70" width="20" height="20" as="geometry" />
        </mxCell>
        <mxCell id="4qUPRxpnoBLBH63eIWVk-295" value="" style="endArrow=none;html=1;rounded=0;entryX=0.5;entryY=1;entryDx=0;entryDy=0;exitX=0.5;exitY=0;exitDx=0;exitDy=0;" edge="1" parent="4qUPRxpnoBLBH63eIWVk-262" source="4qUPRxpnoBLBH63eIWVk-294" target="4qUPRxpnoBLBH63eIWVk-273">
          <mxGeometry width="50" height="50" relative="1" as="geometry">
            <mxPoint x="170" y="170" as="sourcePoint" />
            <mxPoint x="220" y="120" as="targetPoint" />
          </mxGeometry>
        </mxCell>
        <mxCell id="4qUPRxpnoBLBH63eIWVk-296" value="" style="rounded=0;whiteSpace=wrap;html=1;" vertex="1" parent="4qUPRxpnoBLBH63eIWVk-262">
          <mxGeometry x="300" y="70" width="20" height="20" as="geometry" />
        </mxCell>
        <mxCell id="4qUPRxpnoBLBH63eIWVk-297" value="" style="rounded=0;whiteSpace=wrap;html=1;" vertex="1" parent="4qUPRxpnoBLBH63eIWVk-262">
          <mxGeometry x="330" y="70" width="20" height="20" as="geometry" />
        </mxCell>
        <mxCell id="4qUPRxpnoBLBH63eIWVk-298" value="" style="rounded=0;whiteSpace=wrap;html=1;" vertex="1" parent="4qUPRxpnoBLBH63eIWVk-262">
          <mxGeometry x="360" y="70" width="20" height="20" as="geometry" />
        </mxCell>
        <mxCell id="4qUPRxpnoBLBH63eIWVk-299" value="" style="endArrow=none;html=1;rounded=0;entryX=0.5;entryY=1;entryDx=0;entryDy=0;exitX=0.5;exitY=0;exitDx=0;exitDy=0;" edge="1" parent="4qUPRxpnoBLBH63eIWVk-262" source="4qUPRxpnoBLBH63eIWVk-296" target="4qUPRxpnoBLBH63eIWVk-274">
          <mxGeometry width="50" height="50" relative="1" as="geometry">
            <mxPoint x="170" y="170" as="sourcePoint" />
            <mxPoint x="220" y="120" as="targetPoint" />
          </mxGeometry>
        </mxCell>
        <mxCell id="4qUPRxpnoBLBH63eIWVk-300" value="" style="rounded=0;whiteSpace=wrap;html=1;" vertex="1" parent="4qUPRxpnoBLBH63eIWVk-262">
          <mxGeometry x="390" y="70" width="20" height="20" as="geometry" />
        </mxCell>
        <mxCell id="4qUPRxpnoBLBH63eIWVk-301" value="" style="endArrow=none;html=1;rounded=0;entryX=0.5;entryY=1;entryDx=0;entryDy=0;exitX=0.5;exitY=0;exitDx=0;exitDy=0;" edge="1" parent="4qUPRxpnoBLBH63eIWVk-262" source="4qUPRxpnoBLBH63eIWVk-297" target="4qUPRxpnoBLBH63eIWVk-275">
          <mxGeometry width="50" height="50" relative="1" as="geometry">
            <mxPoint x="170" y="170" as="sourcePoint" />
            <mxPoint x="220" y="120" as="targetPoint" />
          </mxGeometry>
        </mxCell>
        <mxCell id="4qUPRxpnoBLBH63eIWVk-302" value="" style="endArrow=none;html=1;rounded=0;entryX=0.5;entryY=1;entryDx=0;entryDy=0;exitX=0.5;exitY=0;exitDx=0;exitDy=0;" edge="1" parent="4qUPRxpnoBLBH63eIWVk-262" source="4qUPRxpnoBLBH63eIWVk-298" target="4qUPRxpnoBLBH63eIWVk-276">
          <mxGeometry width="50" height="50" relative="1" as="geometry">
            <mxPoint x="170" y="170" as="sourcePoint" />
            <mxPoint x="220" y="120" as="targetPoint" />
          </mxGeometry>
        </mxCell>
        <mxCell id="4qUPRxpnoBLBH63eIWVk-303" value="" style="endArrow=none;html=1;rounded=0;entryX=0.5;entryY=1;entryDx=0;entryDy=0;exitX=0.5;exitY=0;exitDx=0;exitDy=0;" edge="1" parent="4qUPRxpnoBLBH63eIWVk-262" source="4qUPRxpnoBLBH63eIWVk-300" target="4qUPRxpnoBLBH63eIWVk-277">
          <mxGeometry width="50" height="50" relative="1" as="geometry">
            <mxPoint x="170" y="170" as="sourcePoint" />
            <mxPoint x="220" y="120" as="targetPoint" />
          </mxGeometry>
        </mxCell>
        <mxCell id="4qUPRxpnoBLBH63eIWVk-304" value="" style="rounded=0;whiteSpace=wrap;html=1;" vertex="1" parent="4qUPRxpnoBLBH63eIWVk-262">
          <mxGeometry x="420" y="70" width="20" height="20" as="geometry" />
        </mxCell>
        <mxCell id="4qUPRxpnoBLBH63eIWVk-305" value="" style="endArrow=none;html=1;rounded=0;entryX=0.5;entryY=1;entryDx=0;entryDy=0;exitX=0.5;exitY=0;exitDx=0;exitDy=0;" edge="1" parent="4qUPRxpnoBLBH63eIWVk-262" source="4qUPRxpnoBLBH63eIWVk-304" target="4qUPRxpnoBLBH63eIWVk-278">
          <mxGeometry width="50" height="50" relative="1" as="geometry">
            <mxPoint x="260" y="170" as="sourcePoint" />
            <mxPoint x="310" y="120" as="targetPoint" />
          </mxGeometry>
        </mxCell>
        <mxCell id="4qUPRxpnoBLBH63eIWVk-306" value="" style="rounded=0;whiteSpace=wrap;html=1;" vertex="1" parent="4qUPRxpnoBLBH63eIWVk-262">
          <mxGeometry x="90" y="70" width="20" height="20" as="geometry" />
        </mxCell>
        <mxCell id="4qUPRxpnoBLBH63eIWVk-307" value="" style="endArrow=none;html=1;rounded=0;exitX=0.5;exitY=0;exitDx=0;exitDy=0;entryX=0.5;entryY=1;entryDx=0;entryDy=0;" edge="1" parent="4qUPRxpnoBLBH63eIWVk-262" source="4qUPRxpnoBLBH63eIWVk-306" target="4qUPRxpnoBLBH63eIWVk-267">
          <mxGeometry width="50" height="50" relative="1" as="geometry">
            <mxPoint x="130" y="100" as="sourcePoint" />
            <mxPoint x="180" y="50" as="targetPoint" />
          </mxGeometry>
        </mxCell>
        <mxCell id="4qUPRxpnoBLBH63eIWVk-308" value="" style="rounded=0;whiteSpace=wrap;html=1;" vertex="1" parent="4qUPRxpnoBLBH63eIWVk-262">
          <mxGeometry x="450" y="70" width="20" height="20" as="geometry" />
        </mxCell>
        <mxCell id="4qUPRxpnoBLBH63eIWVk-309" value="" style="endArrow=none;html=1;rounded=0;entryX=0.5;entryY=1;entryDx=0;entryDy=0;exitX=0.5;exitY=0;exitDx=0;exitDy=0;" edge="1" parent="4qUPRxpnoBLBH63eIWVk-262" source="4qUPRxpnoBLBH63eIWVk-308" target="4qUPRxpnoBLBH63eIWVk-279">
          <mxGeometry width="50" height="50" relative="1" as="geometry">
            <mxPoint x="460" y="60" as="sourcePoint" />
            <mxPoint x="270" y="100" as="targetPoint" />
          </mxGeometry>
        </mxCell>
        <mxCell id="4qUPRxpnoBLBH63eIWVk-311" value="" style="endArrow=none;html=1;rounded=0;entryX=0.5;entryY=1;entryDx=0;entryDy=0;exitX=0.5;exitY=0;exitDx=0;exitDy=0;" edge="1" parent="1" source="4qUPRxpnoBLBH63eIWVk-317" target="4qUPRxpnoBLBH63eIWVk-264">
          <mxGeometry width="50" height="50" relative="1" as="geometry">
            <mxPoint x="240" y="550" as="sourcePoint" />
            <mxPoint x="360" y="500" as="targetPoint" />
            <Array as="points">
              <mxPoint x="285" y="530" />
            </Array>
          </mxGeometry>
        </mxCell>
        <mxCell id="4qUPRxpnoBLBH63eIWVk-361" value="JmtRoot" style="text;html=1;align=center;verticalAlign=middle;whiteSpace=wrap;rounded=0;fontFamily=Times New Roman;fontSize=17;" vertex="1" parent="1">
          <mxGeometry x="525" y="440" width="60" height="20" as="geometry" />
        </mxCell>
        <mxCell id="4qUPRxpnoBLBH63eIWVk-374" value="" style="group" vertex="1" connectable="0" parent="1">
          <mxGeometry x="50" y="570" width="340" height="90" as="geometry" />
        </mxCell>
        <mxCell id="4qUPRxpnoBLBH63eIWVk-312" value="ì" style="group" vertex="1" connectable="0" parent="4qUPRxpnoBLBH63eIWVk-374">
          <mxGeometry x="95.33333333333333" width="198" height="40" as="geometry" />
        </mxCell>
        <mxCell id="4qUPRxpnoBLBH63eIWVk-313" value="" style="group;strokeWidth=2;" vertex="1" connectable="0" parent="4qUPRxpnoBLBH63eIWVk-312">
          <mxGeometry x="29.48936170212766" width="134.80851063829786" height="17.777777777777775" as="geometry" />
        </mxCell>
        <mxCell id="4qUPRxpnoBLBH63eIWVk-314" value="" style="rounded=0;whiteSpace=wrap;html=1;strokeWidth=2;fillColor=#ffe6cc;strokeColor=#d79b00;" vertex="1" parent="4qUPRxpnoBLBH63eIWVk-313">
          <mxGeometry width="8.425531914893616" height="17.777777777777775" as="geometry" />
        </mxCell>
        <mxCell id="4qUPRxpnoBLBH63eIWVk-315" value="" style="rounded=0;whiteSpace=wrap;html=1;strokeWidth=2;fillColor=#ffe6cc;strokeColor=#d79b00;" vertex="1" parent="4qUPRxpnoBLBH63eIWVk-313">
          <mxGeometry x="8.425531914893616" width="8.425531914893616" height="17.777777777777775" as="geometry" />
        </mxCell>
        <mxCell id="4qUPRxpnoBLBH63eIWVk-316" value="" style="rounded=0;whiteSpace=wrap;html=1;strokeWidth=2;fillColor=#ffe6cc;strokeColor=#d79b00;" vertex="1" parent="4qUPRxpnoBLBH63eIWVk-313">
          <mxGeometry x="16.851063829787233" width="8.425531914893616" height="17.777777777777775" as="geometry" />
        </mxCell>
        <mxCell id="4qUPRxpnoBLBH63eIWVk-317" value="" style="rounded=0;whiteSpace=wrap;html=1;strokeWidth=2;fillColor=#ffe6cc;strokeColor=#d79b00;" vertex="1" parent="4qUPRxpnoBLBH63eIWVk-313">
          <mxGeometry x="25.27659574468085" width="8.425531914893616" height="17.777777777777775" as="geometry" />
        </mxCell>
        <mxCell id="4qUPRxpnoBLBH63eIWVk-318" value="" style="rounded=0;whiteSpace=wrap;html=1;strokeWidth=2;fillColor=#ffe6cc;strokeColor=#d79b00;" vertex="1" parent="4qUPRxpnoBLBH63eIWVk-313">
          <mxGeometry x="33.702127659574465" width="8.425531914893616" height="17.777777777777775" as="geometry" />
        </mxCell>
        <mxCell id="4qUPRxpnoBLBH63eIWVk-319" value="" style="rounded=0;whiteSpace=wrap;html=1;strokeWidth=2;fillColor=#ffe6cc;strokeColor=#d79b00;" vertex="1" parent="4qUPRxpnoBLBH63eIWVk-313">
          <mxGeometry x="42.12765957446809" width="8.425531914893616" height="17.777777777777775" as="geometry" />
        </mxCell>
        <mxCell id="4qUPRxpnoBLBH63eIWVk-320" value="" style="rounded=0;whiteSpace=wrap;html=1;strokeWidth=2;fillColor=#ffe6cc;strokeColor=#d79b00;" vertex="1" parent="4qUPRxpnoBLBH63eIWVk-313">
          <mxGeometry x="50.5531914893617" width="8.425531914893616" height="17.777777777777775" as="geometry" />
        </mxCell>
        <mxCell id="4qUPRxpnoBLBH63eIWVk-321" value="" style="rounded=0;whiteSpace=wrap;html=1;strokeWidth=2;fillColor=#ffe6cc;strokeColor=#d79b00;" vertex="1" parent="4qUPRxpnoBLBH63eIWVk-313">
          <mxGeometry x="58.97872340425532" width="8.425531914893616" height="17.777777777777775" as="geometry" />
        </mxCell>
        <mxCell id="4qUPRxpnoBLBH63eIWVk-322" value="" style="rounded=0;whiteSpace=wrap;html=1;strokeWidth=2;fillColor=#ffe6cc;strokeColor=#d79b00;" vertex="1" parent="4qUPRxpnoBLBH63eIWVk-313">
          <mxGeometry x="67.40425531914893" width="8.425531914893616" height="17.777777777777775" as="geometry" />
        </mxCell>
        <mxCell id="4qUPRxpnoBLBH63eIWVk-323" value="" style="rounded=0;whiteSpace=wrap;html=1;strokeWidth=2;fillColor=#ffe6cc;strokeColor=#d79b00;" vertex="1" parent="4qUPRxpnoBLBH63eIWVk-313">
          <mxGeometry x="75.82978723404256" width="8.425531914893616" height="17.777777777777775" as="geometry" />
        </mxCell>
        <mxCell id="4qUPRxpnoBLBH63eIWVk-324" value="" style="rounded=0;whiteSpace=wrap;html=1;strokeWidth=2;fillColor=#ffe6cc;strokeColor=#d79b00;" vertex="1" parent="4qUPRxpnoBLBH63eIWVk-313">
          <mxGeometry x="84.25531914893618" width="8.425531914893616" height="17.777777777777775" as="geometry" />
        </mxCell>
        <mxCell id="4qUPRxpnoBLBH63eIWVk-325" value="" style="rounded=0;whiteSpace=wrap;html=1;strokeWidth=2;fillColor=#ffe6cc;strokeColor=#d79b00;" vertex="1" parent="4qUPRxpnoBLBH63eIWVk-313">
          <mxGeometry x="92.68085106382979" width="8.425531914893616" height="17.777777777777775" as="geometry" />
        </mxCell>
        <mxCell id="4qUPRxpnoBLBH63eIWVk-326" value="" style="rounded=0;whiteSpace=wrap;html=1;strokeWidth=2;fillColor=#ffe6cc;strokeColor=#d79b00;" vertex="1" parent="4qUPRxpnoBLBH63eIWVk-313">
          <mxGeometry x="101.1063829787234" width="8.425531914893616" height="17.777777777777775" as="geometry" />
        </mxCell>
        <mxCell id="4qUPRxpnoBLBH63eIWVk-327" value="" style="rounded=0;whiteSpace=wrap;html=1;strokeWidth=2;fillColor=#ffe6cc;strokeColor=#d79b00;" vertex="1" parent="4qUPRxpnoBLBH63eIWVk-313">
          <mxGeometry x="109.53191489361701" width="8.425531914893616" height="17.777777777777775" as="geometry" />
        </mxCell>
        <mxCell id="4qUPRxpnoBLBH63eIWVk-328" value="" style="rounded=0;whiteSpace=wrap;html=1;strokeWidth=2;fillColor=#ffe6cc;strokeColor=#d79b00;" vertex="1" parent="4qUPRxpnoBLBH63eIWVk-313">
          <mxGeometry x="117.95744680851064" width="8.425531914893616" height="17.777777777777775" as="geometry" />
        </mxCell>
        <mxCell id="4qUPRxpnoBLBH63eIWVk-329" value="" style="rounded=0;whiteSpace=wrap;html=1;strokeWidth=2;fillColor=#ffe6cc;strokeColor=#d79b00;" vertex="1" parent="4qUPRxpnoBLBH63eIWVk-313">
          <mxGeometry x="126.38297872340426" width="8.425531914893616" height="17.777777777777775" as="geometry" />
        </mxCell>
        <mxCell id="4qUPRxpnoBLBH63eIWVk-360" value="" style="endArrow=none;html=1;rounded=0;entryX=0.5;entryY=1;entryDx=0;entryDy=0;exitX=0.567;exitY=-0.008;exitDx=0;exitDy=0;exitPerimeter=0;" edge="1" parent="4qUPRxpnoBLBH63eIWVk-374" source="4qUPRxpnoBLBH63eIWVk-366" target="4qUPRxpnoBLBH63eIWVk-314">
          <mxGeometry width="50" height="50" relative="1" as="geometry">
            <mxPoint x="36.666666666666664" y="40" as="sourcePoint" />
            <mxPoint x="93.13333333333333" y="6.666666666666666" as="targetPoint" />
            <Array as="points">
              <mxPoint x="58.666666666666664" y="26.666666666666664" />
            </Array>
          </mxGeometry>
        </mxCell>
        <mxCell id="4qUPRxpnoBLBH63eIWVk-364" value="" style="ellipse;whiteSpace=wrap;html=1;strokeWidth=2;fillColor=default;" vertex="1" parent="4qUPRxpnoBLBH63eIWVk-374">
          <mxGeometry x="73.33" y="53.33" width="66.67" height="36.67" as="geometry" />
        </mxCell>
        <mxCell id="4qUPRxpnoBLBH63eIWVk-365" value="&lt;font face=&quot;Times New Roman&quot;&gt;0x01A48, &quot;cosa&quot;&lt;/font&gt;" style="text;html=1;align=center;verticalAlign=middle;whiteSpace=wrap;rounded=0;labelBackgroundColor=default;fontSize=8;" vertex="1" parent="4qUPRxpnoBLBH63eIWVk-374">
          <mxGeometry x="66.53999999999999" y="60" width="80.25" height="23.33" as="geometry" />
        </mxCell>
        <mxCell id="4qUPRxpnoBLBH63eIWVk-366" value="" style="ellipse;whiteSpace=wrap;html=1;strokeWidth=2;" vertex="1" parent="4qUPRxpnoBLBH63eIWVk-374">
          <mxGeometry y="40" width="66" height="26.666666666666664" as="geometry" />
        </mxCell>
        <mxCell id="4qUPRxpnoBLBH63eIWVk-367" value="&lt;font face=&quot;Times New Roman&quot;&gt;0x00567, &quot;ciao&quot;&lt;/font&gt;" style="text;html=1;align=center;verticalAlign=middle;whiteSpace=wrap;rounded=0;labelBackgroundColor=default;fontSize=8;" vertex="1" parent="4qUPRxpnoBLBH63eIWVk-374">
          <mxGeometry x="-4.25" y="43.33" width="74.5" height="20" as="geometry" />
        </mxCell>
        <mxCell id="4qUPRxpnoBLBH63eIWVk-331" value="" style="endArrow=none;html=1;rounded=0;entryX=0.5;entryY=1;entryDx=0;entryDy=0;exitX=0.5;exitY=0;exitDx=0;exitDy=0;" edge="1" parent="4qUPRxpnoBLBH63eIWVk-374" source="4qUPRxpnoBLBH63eIWVk-364" target="4qUPRxpnoBLBH63eIWVk-315">
          <mxGeometry width="50" height="50" relative="1" as="geometry">
            <mxPoint x="109.99999999999999" y="60" as="sourcePoint" />
            <mxPoint x="188.01418439716312" y="53.33333333333333" as="targetPoint" />
            <Array as="points">
              <mxPoint x="109.99999999999999" y="33.33333333333333" />
            </Array>
          </mxGeometry>
        </mxCell>
        <mxCell id="4qUPRxpnoBLBH63eIWVk-371" value="" style="group" vertex="1" connectable="0" parent="4qUPRxpnoBLBH63eIWVk-374">
          <mxGeometry x="264" y="43.33" width="76" height="36.67" as="geometry" />
        </mxCell>
        <mxCell id="4qUPRxpnoBLBH63eIWVk-369" value="" style="ellipse;whiteSpace=wrap;html=1;strokeWidth=2;" vertex="1" parent="4qUPRxpnoBLBH63eIWVk-371">
          <mxGeometry width="76" height="36.67" as="geometry" />
        </mxCell>
        <mxCell id="4qUPRxpnoBLBH63eIWVk-370" value="&lt;font face=&quot;Times New Roman&quot;&gt;0x0F555, &quot;dì&quot;&lt;/font&gt;" style="text;html=1;align=center;verticalAlign=middle;whiteSpace=wrap;rounded=0;labelBackgroundColor=default;fontSize=10;" vertex="1" parent="4qUPRxpnoBLBH63eIWVk-371">
          <mxGeometry x="8.333333333333334" y="4.58375" width="61.22222222222222" height="27.502500000000005" as="geometry" />
        </mxCell>
        <mxCell id="4qUPRxpnoBLBH63eIWVk-359" value="" style="endArrow=none;html=1;rounded=0;entryX=0.5;entryY=1;entryDx=0;entryDy=0;exitX=0.5;exitY=0;exitDx=0;exitDy=0;" edge="1" parent="4qUPRxpnoBLBH63eIWVk-374" source="4qUPRxpnoBLBH63eIWVk-369" target="4qUPRxpnoBLBH63eIWVk-329">
          <mxGeometry width="50" height="50" relative="1" as="geometry">
            <mxPoint x="289.12056737588654" y="31.111111111111086" as="sourcePoint" />
            <mxPoint x="209.07801418439718" y="44.444444444444414" as="targetPoint" />
            <Array as="points">
              <mxPoint x="286" y="26.666666666666664" />
            </Array>
          </mxGeometry>
        </mxCell>
        <mxCell id="4qUPRxpnoBLBH63eIWVk-373" value="" style="endArrow=none;dashed=1;html=1;dashPattern=1 3;strokeWidth=2;rounded=0;" edge="1" parent="4qUPRxpnoBLBH63eIWVk-374">
          <mxGeometry width="50" height="50" relative="1" as="geometry">
            <mxPoint x="154" y="60" as="sourcePoint" />
            <mxPoint x="249.33333333333331" y="60" as="targetPoint" />
          </mxGeometry>
        </mxCell>
        <mxCell id="4qUPRxpnoBLBH63eIWVk-405" value="" style="group;strokeWidth=2;" vertex="1" connectable="0" parent="1">
          <mxGeometry x="428.82269503546104" y="580" width="134.80851063829786" height="17.777777777777775" as="geometry" />
        </mxCell>
        <mxCell id="4qUPRxpnoBLBH63eIWVk-406" value="" style="rounded=0;whiteSpace=wrap;html=1;strokeWidth=2;" vertex="1" parent="4qUPRxpnoBLBH63eIWVk-405">
          <mxGeometry width="8.425531914893616" height="17.777777777777775" as="geometry" />
        </mxCell>
        <mxCell id="4qUPRxpnoBLBH63eIWVk-407" value="" style="rounded=0;whiteSpace=wrap;html=1;strokeWidth=2;" vertex="1" parent="4qUPRxpnoBLBH63eIWVk-405">
          <mxGeometry x="8.425531914893616" width="8.425531914893616" height="17.777777777777775" as="geometry" />
        </mxCell>
        <mxCell id="4qUPRxpnoBLBH63eIWVk-408" value="" style="rounded=0;whiteSpace=wrap;html=1;strokeWidth=2;" vertex="1" parent="4qUPRxpnoBLBH63eIWVk-405">
          <mxGeometry x="16.851063829787233" width="8.425531914893616" height="17.777777777777775" as="geometry" />
        </mxCell>
        <mxCell id="4qUPRxpnoBLBH63eIWVk-409" value="" style="rounded=0;whiteSpace=wrap;html=1;strokeWidth=2;" vertex="1" parent="4qUPRxpnoBLBH63eIWVk-405">
          <mxGeometry x="25.27659574468085" width="8.425531914893616" height="17.777777777777775" as="geometry" />
        </mxCell>
        <mxCell id="4qUPRxpnoBLBH63eIWVk-410" value="" style="rounded=0;whiteSpace=wrap;html=1;strokeWidth=2;" vertex="1" parent="4qUPRxpnoBLBH63eIWVk-405">
          <mxGeometry x="33.702127659574465" width="8.425531914893616" height="17.777777777777775" as="geometry" />
        </mxCell>
        <mxCell id="4qUPRxpnoBLBH63eIWVk-411" value="" style="rounded=0;whiteSpace=wrap;html=1;strokeWidth=2;" vertex="1" parent="4qUPRxpnoBLBH63eIWVk-405">
          <mxGeometry x="42.12765957446809" width="8.425531914893616" height="17.777777777777775" as="geometry" />
        </mxCell>
        <mxCell id="4qUPRxpnoBLBH63eIWVk-412" value="" style="rounded=0;whiteSpace=wrap;html=1;strokeWidth=2;" vertex="1" parent="4qUPRxpnoBLBH63eIWVk-405">
          <mxGeometry x="50.5531914893617" width="8.425531914893616" height="17.777777777777775" as="geometry" />
        </mxCell>
        <mxCell id="4qUPRxpnoBLBH63eIWVk-413" value="" style="rounded=0;whiteSpace=wrap;html=1;strokeWidth=2;" vertex="1" parent="4qUPRxpnoBLBH63eIWVk-405">
          <mxGeometry x="58.97872340425532" width="8.425531914893616" height="17.777777777777775" as="geometry" />
        </mxCell>
        <mxCell id="4qUPRxpnoBLBH63eIWVk-414" value="" style="rounded=0;whiteSpace=wrap;html=1;strokeWidth=2;" vertex="1" parent="4qUPRxpnoBLBH63eIWVk-405">
          <mxGeometry x="67.40425531914893" width="8.425531914893616" height="17.777777777777775" as="geometry" />
        </mxCell>
        <mxCell id="4qUPRxpnoBLBH63eIWVk-415" value="" style="rounded=0;whiteSpace=wrap;html=1;strokeWidth=2;" vertex="1" parent="4qUPRxpnoBLBH63eIWVk-405">
          <mxGeometry x="75.82978723404256" width="8.425531914893616" height="17.777777777777775" as="geometry" />
        </mxCell>
        <mxCell id="4qUPRxpnoBLBH63eIWVk-416" value="" style="rounded=0;whiteSpace=wrap;html=1;strokeWidth=2;" vertex="1" parent="4qUPRxpnoBLBH63eIWVk-405">
          <mxGeometry x="84.25531914893618" width="8.425531914893616" height="17.777777777777775" as="geometry" />
        </mxCell>
        <mxCell id="4qUPRxpnoBLBH63eIWVk-417" value="" style="rounded=0;whiteSpace=wrap;html=1;strokeWidth=2;" vertex="1" parent="4qUPRxpnoBLBH63eIWVk-405">
          <mxGeometry x="92.68085106382979" width="8.425531914893616" height="17.777777777777775" as="geometry" />
        </mxCell>
        <mxCell id="4qUPRxpnoBLBH63eIWVk-418" value="" style="rounded=0;whiteSpace=wrap;html=1;strokeWidth=2;" vertex="1" parent="4qUPRxpnoBLBH63eIWVk-405">
          <mxGeometry x="101.1063829787234" width="8.425531914893616" height="17.777777777777775" as="geometry" />
        </mxCell>
        <mxCell id="4qUPRxpnoBLBH63eIWVk-419" value="" style="rounded=0;whiteSpace=wrap;html=1;strokeWidth=2;" vertex="1" parent="4qUPRxpnoBLBH63eIWVk-405">
          <mxGeometry x="109.53191489361701" width="8.425531914893616" height="17.777777777777775" as="geometry" />
        </mxCell>
        <mxCell id="4qUPRxpnoBLBH63eIWVk-420" value="" style="rounded=0;whiteSpace=wrap;html=1;strokeWidth=2;" vertex="1" parent="4qUPRxpnoBLBH63eIWVk-405">
          <mxGeometry x="117.95744680851064" width="8.425531914893616" height="17.777777777777775" as="geometry" />
        </mxCell>
        <mxCell id="4qUPRxpnoBLBH63eIWVk-421" value="" style="rounded=0;whiteSpace=wrap;html=1;strokeWidth=2;" vertex="1" parent="4qUPRxpnoBLBH63eIWVk-405">
          <mxGeometry x="126.38297872340426" width="8.425531914893616" height="17.777777777777775" as="geometry" />
        </mxCell>
        <mxCell id="4qUPRxpnoBLBH63eIWVk-422" value="" style="endArrow=none;html=1;rounded=0;entryX=0.5;entryY=1;entryDx=0;entryDy=0;exitX=0.567;exitY=-0.008;exitDx=0;exitDy=0;exitPerimeter=0;" edge="1" parent="1" source="4qUPRxpnoBLBH63eIWVk-425" target="4qUPRxpnoBLBH63eIWVk-406">
          <mxGeometry width="50" height="50" relative="1" as="geometry">
            <mxPoint x="340.66666666666663" y="620" as="sourcePoint" />
            <mxPoint x="397.1333333333333" y="586.6666666666667" as="targetPoint" />
            <Array as="points" />
          </mxGeometry>
        </mxCell>
        <mxCell id="4qUPRxpnoBLBH63eIWVk-423" value="" style="ellipse;whiteSpace=wrap;html=1;strokeWidth=2;fillColor=#ffe6cc;strokeColor=#d79b00;" vertex="1" parent="1">
          <mxGeometry x="459.75" y="633.33" width="66.67" height="26.67" as="geometry" />
        </mxCell>
        <mxCell id="4qUPRxpnoBLBH63eIWVk-424" value="&lt;font face=&quot;Times New Roman&quot;&gt;0x11C48, &quot;gatto&quot;&lt;/font&gt;" style="text;html=1;align=center;verticalAlign=middle;whiteSpace=wrap;rounded=0;labelBackgroundColor=default;fontSize=8;" vertex="1" parent="1">
          <mxGeometry x="452.96000000000004" y="636.67" width="80.25" height="20" as="geometry" />
        </mxCell>
        <mxCell id="4qUPRxpnoBLBH63eIWVk-425" value="" style="ellipse;whiteSpace=wrap;html=1;strokeWidth=2;" vertex="1" parent="1">
          <mxGeometry x="389" y="641.6700000000001" width="66" height="26.666666666666664" as="geometry" />
        </mxCell>
        <mxCell id="4qUPRxpnoBLBH63eIWVk-426" value="&lt;font face=&quot;Times New Roman&quot;&gt;0x10610, &quot;cane&quot;&lt;/font&gt;" style="text;html=1;align=center;verticalAlign=middle;whiteSpace=wrap;rounded=0;labelBackgroundColor=default;fontSize=8;" vertex="1" parent="1">
          <mxGeometry x="385.25" y="645" width="74.5" height="20" as="geometry" />
        </mxCell>
        <mxCell id="4qUPRxpnoBLBH63eIWVk-427" value="" style="endArrow=none;html=1;rounded=0;entryX=0.5;entryY=1;entryDx=0;entryDy=0;exitX=0.5;exitY=0;exitDx=0;exitDy=0;" edge="1" parent="1" source="4qUPRxpnoBLBH63eIWVk-423" target="4qUPRxpnoBLBH63eIWVk-407">
          <mxGeometry width="50" height="50" relative="1" as="geometry">
            <mxPoint x="414" y="640" as="sourcePoint" />
            <mxPoint x="492.01418439716315" y="633.3333333333333" as="targetPoint" />
            <Array as="points" />
          </mxGeometry>
        </mxCell>
        <mxCell id="4qUPRxpnoBLBH63eIWVk-536" value="" style="group" vertex="1" connectable="0" parent="1">
          <mxGeometry x="320" y="110" width="470" height="90" as="geometry" />
        </mxCell>
        <mxCell id="4qUPRxpnoBLBH63eIWVk-537" value="" style="group;strokeWidth=2;" vertex="1" connectable="0" parent="4qUPRxpnoBLBH63eIWVk-536">
          <mxGeometry x="70" width="320" height="40" as="geometry" />
        </mxCell>
        <mxCell id="4qUPRxpnoBLBH63eIWVk-538" value="" style="rounded=0;whiteSpace=wrap;html=1;strokeWidth=2;" vertex="1" parent="4qUPRxpnoBLBH63eIWVk-537">
          <mxGeometry width="20" height="40" as="geometry" />
        </mxCell>
        <mxCell id="4qUPRxpnoBLBH63eIWVk-539" value="" style="rounded=0;whiteSpace=wrap;html=1;strokeWidth=2;" vertex="1" parent="4qUPRxpnoBLBH63eIWVk-537">
          <mxGeometry x="20" width="20" height="40" as="geometry" />
        </mxCell>
        <mxCell id="4qUPRxpnoBLBH63eIWVk-540" value="" style="rounded=0;whiteSpace=wrap;html=1;strokeWidth=2;" vertex="1" parent="4qUPRxpnoBLBH63eIWVk-537">
          <mxGeometry x="40" width="20" height="40" as="geometry" />
        </mxCell>
        <mxCell id="4qUPRxpnoBLBH63eIWVk-541" value="" style="rounded=0;whiteSpace=wrap;html=1;strokeWidth=2;" vertex="1" parent="4qUPRxpnoBLBH63eIWVk-537">
          <mxGeometry x="60" width="20" height="40" as="geometry" />
        </mxCell>
        <mxCell id="4qUPRxpnoBLBH63eIWVk-542" value="" style="rounded=0;whiteSpace=wrap;html=1;strokeWidth=2;" vertex="1" parent="4qUPRxpnoBLBH63eIWVk-537">
          <mxGeometry x="80" width="20" height="40" as="geometry" />
        </mxCell>
        <mxCell id="4qUPRxpnoBLBH63eIWVk-543" value="" style="rounded=0;whiteSpace=wrap;html=1;strokeWidth=2;" vertex="1" parent="4qUPRxpnoBLBH63eIWVk-537">
          <mxGeometry x="100" width="20" height="40" as="geometry" />
        </mxCell>
        <mxCell id="4qUPRxpnoBLBH63eIWVk-544" value="" style="rounded=0;whiteSpace=wrap;html=1;strokeWidth=2;" vertex="1" parent="4qUPRxpnoBLBH63eIWVk-537">
          <mxGeometry x="120" width="20" height="40" as="geometry" />
        </mxCell>
        <mxCell id="4qUPRxpnoBLBH63eIWVk-545" value="" style="rounded=0;whiteSpace=wrap;html=1;strokeWidth=2;" vertex="1" parent="4qUPRxpnoBLBH63eIWVk-537">
          <mxGeometry x="140" width="20" height="40" as="geometry" />
        </mxCell>
        <mxCell id="4qUPRxpnoBLBH63eIWVk-546" value="" style="rounded=0;whiteSpace=wrap;html=1;strokeWidth=2;" vertex="1" parent="4qUPRxpnoBLBH63eIWVk-537">
          <mxGeometry x="160" width="20" height="40" as="geometry" />
        </mxCell>
        <mxCell id="4qUPRxpnoBLBH63eIWVk-547" value="" style="rounded=0;whiteSpace=wrap;html=1;strokeWidth=2;" vertex="1" parent="4qUPRxpnoBLBH63eIWVk-537">
          <mxGeometry x="180" width="20" height="40" as="geometry" />
        </mxCell>
        <mxCell id="4qUPRxpnoBLBH63eIWVk-548" value="" style="rounded=0;whiteSpace=wrap;html=1;strokeWidth=2;" vertex="1" parent="4qUPRxpnoBLBH63eIWVk-537">
          <mxGeometry x="200" width="20" height="40" as="geometry" />
        </mxCell>
        <mxCell id="4qUPRxpnoBLBH63eIWVk-549" value="" style="rounded=0;whiteSpace=wrap;html=1;strokeWidth=2;" vertex="1" parent="4qUPRxpnoBLBH63eIWVk-537">
          <mxGeometry x="220" width="20" height="40" as="geometry" />
        </mxCell>
        <mxCell id="4qUPRxpnoBLBH63eIWVk-550" value="" style="rounded=0;whiteSpace=wrap;html=1;strokeWidth=2;" vertex="1" parent="4qUPRxpnoBLBH63eIWVk-537">
          <mxGeometry x="240" width="20" height="40" as="geometry" />
        </mxCell>
        <mxCell id="4qUPRxpnoBLBH63eIWVk-551" value="" style="rounded=0;whiteSpace=wrap;html=1;strokeWidth=2;" vertex="1" parent="4qUPRxpnoBLBH63eIWVk-537">
          <mxGeometry x="260" width="20" height="40" as="geometry" />
        </mxCell>
        <mxCell id="4qUPRxpnoBLBH63eIWVk-552" value="" style="rounded=0;whiteSpace=wrap;html=1;strokeWidth=2;" vertex="1" parent="4qUPRxpnoBLBH63eIWVk-537">
          <mxGeometry x="280" width="20" height="40" as="geometry" />
        </mxCell>
        <mxCell id="4qUPRxpnoBLBH63eIWVk-553" value="" style="rounded=0;whiteSpace=wrap;html=1;strokeWidth=2;" vertex="1" parent="4qUPRxpnoBLBH63eIWVk-537">
          <mxGeometry x="300" width="20" height="40" as="geometry" />
        </mxCell>
        <mxCell id="4qUPRxpnoBLBH63eIWVk-555" value="" style="rounded=0;whiteSpace=wrap;html=1;" vertex="1" parent="4qUPRxpnoBLBH63eIWVk-536">
          <mxGeometry x="60" y="70" width="20" height="20" as="geometry" />
        </mxCell>
        <mxCell id="4qUPRxpnoBLBH63eIWVk-556" value="" style="endArrow=none;html=1;rounded=0;entryX=0.5;entryY=1;entryDx=0;entryDy=0;exitX=0.5;exitY=0;exitDx=0;exitDy=0;" edge="1" parent="4qUPRxpnoBLBH63eIWVk-536" source="4qUPRxpnoBLBH63eIWVk-555" target="4qUPRxpnoBLBH63eIWVk-540">
          <mxGeometry width="50" height="50" relative="1" as="geometry">
            <mxPoint x="170" y="170" as="sourcePoint" />
            <mxPoint x="220" y="120" as="targetPoint" />
          </mxGeometry>
        </mxCell>
        <mxCell id="4qUPRxpnoBLBH63eIWVk-557" value="" style="rounded=0;whiteSpace=wrap;html=1;" vertex="1" parent="4qUPRxpnoBLBH63eIWVk-536">
          <mxGeometry x="120" y="70" width="20" height="20" as="geometry" />
        </mxCell>
        <mxCell id="4qUPRxpnoBLBH63eIWVk-558" value="" style="endArrow=none;html=1;rounded=0;entryX=0.5;entryY=1;entryDx=0;entryDy=0;exitX=0.5;exitY=0;exitDx=0;exitDy=0;" edge="1" parent="4qUPRxpnoBLBH63eIWVk-536" source="4qUPRxpnoBLBH63eIWVk-557" target="4qUPRxpnoBLBH63eIWVk-542">
          <mxGeometry width="50" height="50" relative="1" as="geometry">
            <mxPoint x="170" y="170" as="sourcePoint" />
            <mxPoint x="220" y="120" as="targetPoint" />
          </mxGeometry>
        </mxCell>
        <mxCell id="4qUPRxpnoBLBH63eIWVk-559" value="" style="rounded=0;whiteSpace=wrap;html=1;" vertex="1" parent="4qUPRxpnoBLBH63eIWVk-536">
          <mxGeometry x="150" y="70" width="20" height="20" as="geometry" />
        </mxCell>
        <mxCell id="4qUPRxpnoBLBH63eIWVk-560" value="" style="endArrow=none;html=1;rounded=0;entryX=0.5;entryY=1;entryDx=0;entryDy=0;exitX=0.5;exitY=0;exitDx=0;exitDy=0;" edge="1" parent="4qUPRxpnoBLBH63eIWVk-536" source="4qUPRxpnoBLBH63eIWVk-559" target="4qUPRxpnoBLBH63eIWVk-543">
          <mxGeometry width="50" height="50" relative="1" as="geometry">
            <mxPoint x="170" y="170" as="sourcePoint" />
            <mxPoint x="220" y="120" as="targetPoint" />
          </mxGeometry>
        </mxCell>
        <mxCell id="4qUPRxpnoBLBH63eIWVk-561" value="" style="rounded=0;whiteSpace=wrap;html=1;" vertex="1" parent="4qUPRxpnoBLBH63eIWVk-536">
          <mxGeometry x="180" y="70" width="20" height="20" as="geometry" />
        </mxCell>
        <mxCell id="4qUPRxpnoBLBH63eIWVk-562" value="" style="endArrow=none;html=1;rounded=0;entryX=0.5;entryY=1;entryDx=0;entryDy=0;exitX=0.5;exitY=0;exitDx=0;exitDy=0;" edge="1" parent="4qUPRxpnoBLBH63eIWVk-536" source="4qUPRxpnoBLBH63eIWVk-561" target="4qUPRxpnoBLBH63eIWVk-544">
          <mxGeometry width="50" height="50" relative="1" as="geometry">
            <mxPoint x="170" y="170" as="sourcePoint" />
            <mxPoint x="220" y="120" as="targetPoint" />
          </mxGeometry>
        </mxCell>
        <mxCell id="4qUPRxpnoBLBH63eIWVk-563" value="" style="rounded=0;whiteSpace=wrap;html=1;" vertex="1" parent="4qUPRxpnoBLBH63eIWVk-536">
          <mxGeometry x="210" y="70" width="20" height="20" as="geometry" />
        </mxCell>
        <mxCell id="4qUPRxpnoBLBH63eIWVk-564" value="" style="endArrow=none;html=1;rounded=0;entryX=0.5;entryY=1;entryDx=0;entryDy=0;exitX=0.5;exitY=0;exitDx=0;exitDy=0;" edge="1" parent="4qUPRxpnoBLBH63eIWVk-536" source="4qUPRxpnoBLBH63eIWVk-563" target="4qUPRxpnoBLBH63eIWVk-545">
          <mxGeometry width="50" height="50" relative="1" as="geometry">
            <mxPoint x="170" y="170" as="sourcePoint" />
            <mxPoint x="220" y="120" as="targetPoint" />
          </mxGeometry>
        </mxCell>
        <mxCell id="4qUPRxpnoBLBH63eIWVk-565" value="" style="rounded=0;whiteSpace=wrap;html=1;" vertex="1" parent="4qUPRxpnoBLBH63eIWVk-536">
          <mxGeometry x="240" y="70" width="20" height="20" as="geometry" />
        </mxCell>
        <mxCell id="4qUPRxpnoBLBH63eIWVk-566" value="" style="endArrow=none;html=1;rounded=0;entryX=0.5;entryY=1;entryDx=0;entryDy=0;exitX=0.5;exitY=0;exitDx=0;exitDy=0;" edge="1" parent="4qUPRxpnoBLBH63eIWVk-536" source="4qUPRxpnoBLBH63eIWVk-565" target="4qUPRxpnoBLBH63eIWVk-546">
          <mxGeometry width="50" height="50" relative="1" as="geometry">
            <mxPoint x="170" y="170" as="sourcePoint" />
            <mxPoint x="220" y="120" as="targetPoint" />
          </mxGeometry>
        </mxCell>
        <mxCell id="4qUPRxpnoBLBH63eIWVk-567" value="" style="rounded=0;whiteSpace=wrap;html=1;" vertex="1" parent="4qUPRxpnoBLBH63eIWVk-536">
          <mxGeometry x="270" y="70" width="20" height="20" as="geometry" />
        </mxCell>
        <mxCell id="4qUPRxpnoBLBH63eIWVk-568" value="" style="endArrow=none;html=1;rounded=0;entryX=0.5;entryY=1;entryDx=0;entryDy=0;exitX=0.5;exitY=0;exitDx=0;exitDy=0;" edge="1" parent="4qUPRxpnoBLBH63eIWVk-536" source="4qUPRxpnoBLBH63eIWVk-567" target="4qUPRxpnoBLBH63eIWVk-547">
          <mxGeometry width="50" height="50" relative="1" as="geometry">
            <mxPoint x="170" y="170" as="sourcePoint" />
            <mxPoint x="220" y="120" as="targetPoint" />
          </mxGeometry>
        </mxCell>
        <mxCell id="4qUPRxpnoBLBH63eIWVk-569" value="" style="rounded=0;whiteSpace=wrap;html=1;" vertex="1" parent="4qUPRxpnoBLBH63eIWVk-536">
          <mxGeometry x="300" y="70" width="20" height="20" as="geometry" />
        </mxCell>
        <mxCell id="4qUPRxpnoBLBH63eIWVk-570" value="" style="rounded=0;whiteSpace=wrap;html=1;" vertex="1" parent="4qUPRxpnoBLBH63eIWVk-536">
          <mxGeometry x="330" y="70" width="20" height="20" as="geometry" />
        </mxCell>
        <mxCell id="4qUPRxpnoBLBH63eIWVk-571" value="" style="rounded=0;whiteSpace=wrap;html=1;" vertex="1" parent="4qUPRxpnoBLBH63eIWVk-536">
          <mxGeometry x="360" y="70" width="20" height="20" as="geometry" />
        </mxCell>
        <mxCell id="4qUPRxpnoBLBH63eIWVk-572" value="" style="endArrow=none;html=1;rounded=0;entryX=0.5;entryY=1;entryDx=0;entryDy=0;exitX=0.5;exitY=0;exitDx=0;exitDy=0;" edge="1" parent="4qUPRxpnoBLBH63eIWVk-536" source="4qUPRxpnoBLBH63eIWVk-569" target="4qUPRxpnoBLBH63eIWVk-548">
          <mxGeometry width="50" height="50" relative="1" as="geometry">
            <mxPoint x="170" y="170" as="sourcePoint" />
            <mxPoint x="220" y="120" as="targetPoint" />
          </mxGeometry>
        </mxCell>
        <mxCell id="4qUPRxpnoBLBH63eIWVk-573" value="" style="rounded=0;whiteSpace=wrap;html=1;" vertex="1" parent="4qUPRxpnoBLBH63eIWVk-536">
          <mxGeometry x="390" y="70" width="20" height="20" as="geometry" />
        </mxCell>
        <mxCell id="4qUPRxpnoBLBH63eIWVk-574" value="" style="endArrow=none;html=1;rounded=0;entryX=0.5;entryY=1;entryDx=0;entryDy=0;exitX=0.5;exitY=0;exitDx=0;exitDy=0;" edge="1" parent="4qUPRxpnoBLBH63eIWVk-536" source="4qUPRxpnoBLBH63eIWVk-570" target="4qUPRxpnoBLBH63eIWVk-549">
          <mxGeometry width="50" height="50" relative="1" as="geometry">
            <mxPoint x="170" y="170" as="sourcePoint" />
            <mxPoint x="220" y="120" as="targetPoint" />
          </mxGeometry>
        </mxCell>
        <mxCell id="4qUPRxpnoBLBH63eIWVk-575" value="" style="endArrow=none;html=1;rounded=0;entryX=0.5;entryY=1;entryDx=0;entryDy=0;exitX=0.5;exitY=0;exitDx=0;exitDy=0;" edge="1" parent="4qUPRxpnoBLBH63eIWVk-536" source="4qUPRxpnoBLBH63eIWVk-571" target="4qUPRxpnoBLBH63eIWVk-550">
          <mxGeometry width="50" height="50" relative="1" as="geometry">
            <mxPoint x="170" y="170" as="sourcePoint" />
            <mxPoint x="220" y="120" as="targetPoint" />
          </mxGeometry>
        </mxCell>
        <mxCell id="4qUPRxpnoBLBH63eIWVk-576" value="" style="endArrow=none;html=1;rounded=0;entryX=0.5;entryY=1;entryDx=0;entryDy=0;exitX=0.5;exitY=0;exitDx=0;exitDy=0;" edge="1" parent="4qUPRxpnoBLBH63eIWVk-536" source="4qUPRxpnoBLBH63eIWVk-573" target="4qUPRxpnoBLBH63eIWVk-551">
          <mxGeometry width="50" height="50" relative="1" as="geometry">
            <mxPoint x="170" y="170" as="sourcePoint" />
            <mxPoint x="220" y="120" as="targetPoint" />
          </mxGeometry>
        </mxCell>
        <mxCell id="4qUPRxpnoBLBH63eIWVk-577" value="" style="rounded=0;whiteSpace=wrap;html=1;" vertex="1" parent="4qUPRxpnoBLBH63eIWVk-536">
          <mxGeometry x="420" y="70" width="20" height="20" as="geometry" />
        </mxCell>
        <mxCell id="4qUPRxpnoBLBH63eIWVk-578" value="" style="endArrow=none;html=1;rounded=0;entryX=0.5;entryY=1;entryDx=0;entryDy=0;exitX=0.5;exitY=0;exitDx=0;exitDy=0;" edge="1" parent="4qUPRxpnoBLBH63eIWVk-536" source="4qUPRxpnoBLBH63eIWVk-577" target="4qUPRxpnoBLBH63eIWVk-552">
          <mxGeometry width="50" height="50" relative="1" as="geometry">
            <mxPoint x="260" y="170" as="sourcePoint" />
            <mxPoint x="310" y="120" as="targetPoint" />
          </mxGeometry>
        </mxCell>
        <mxCell id="4qUPRxpnoBLBH63eIWVk-579" value="" style="rounded=0;whiteSpace=wrap;html=1;" vertex="1" parent="4qUPRxpnoBLBH63eIWVk-536">
          <mxGeometry x="90" y="70" width="20" height="20" as="geometry" />
        </mxCell>
        <mxCell id="4qUPRxpnoBLBH63eIWVk-580" value="" style="endArrow=none;html=1;rounded=0;exitX=0.5;exitY=0;exitDx=0;exitDy=0;entryX=0.5;entryY=1;entryDx=0;entryDy=0;" edge="1" parent="4qUPRxpnoBLBH63eIWVk-536" source="4qUPRxpnoBLBH63eIWVk-579" target="4qUPRxpnoBLBH63eIWVk-541">
          <mxGeometry width="50" height="50" relative="1" as="geometry">
            <mxPoint x="130" y="100" as="sourcePoint" />
            <mxPoint x="180" y="50" as="targetPoint" />
          </mxGeometry>
        </mxCell>
        <mxCell id="4qUPRxpnoBLBH63eIWVk-581" value="" style="rounded=0;whiteSpace=wrap;html=1;" vertex="1" parent="4qUPRxpnoBLBH63eIWVk-536">
          <mxGeometry x="450" y="70" width="20" height="20" as="geometry" />
        </mxCell>
        <mxCell id="4qUPRxpnoBLBH63eIWVk-582" value="" style="endArrow=none;html=1;rounded=0;entryX=0.5;entryY=1;entryDx=0;entryDy=0;exitX=0.5;exitY=0;exitDx=0;exitDy=0;" edge="1" parent="4qUPRxpnoBLBH63eIWVk-536" source="4qUPRxpnoBLBH63eIWVk-581" target="4qUPRxpnoBLBH63eIWVk-553">
          <mxGeometry width="50" height="50" relative="1" as="geometry">
            <mxPoint x="460" y="60" as="sourcePoint" />
            <mxPoint x="270" y="100" as="targetPoint" />
          </mxGeometry>
        </mxCell>
        <mxCell id="4qUPRxpnoBLBH63eIWVk-583" value="" style="endArrow=none;html=1;rounded=0;entryX=0.5;entryY=1;entryDx=0;entryDy=0;exitX=0.5;exitY=0;exitDx=0;exitDy=0;" edge="1" parent="1" source="4qUPRxpnoBLBH63eIWVk-591" target="4qUPRxpnoBLBH63eIWVk-538">
          <mxGeometry width="50" height="50" relative="1" as="geometry">
            <mxPoint x="240" y="200" as="sourcePoint" />
            <mxPoint x="360" y="150" as="targetPoint" />
            <Array as="points">
              <mxPoint x="285" y="180" />
            </Array>
          </mxGeometry>
        </mxCell>
        <mxCell id="4qUPRxpnoBLBH63eIWVk-584" value="JmtRoot" style="text;html=1;align=center;verticalAlign=middle;whiteSpace=wrap;rounded=0;fontFamily=Times New Roman;fontSize=17;" vertex="1" parent="1">
          <mxGeometry x="525" y="90" width="60" height="20" as="geometry" />
        </mxCell>
        <mxCell id="4qUPRxpnoBLBH63eIWVk-585" value="" style="group" vertex="1" connectable="0" parent="1">
          <mxGeometry x="50" y="220" width="340" height="90" as="geometry" />
        </mxCell>
        <mxCell id="4qUPRxpnoBLBH63eIWVk-586" value="ì" style="group" vertex="1" connectable="0" parent="4qUPRxpnoBLBH63eIWVk-585">
          <mxGeometry x="95.33333333333333" width="198" height="40" as="geometry" />
        </mxCell>
        <mxCell id="4qUPRxpnoBLBH63eIWVk-587" value="" style="group;strokeWidth=2;" vertex="1" connectable="0" parent="4qUPRxpnoBLBH63eIWVk-586">
          <mxGeometry x="29.48936170212766" width="134.80851063829786" height="17.777777777777775" as="geometry" />
        </mxCell>
        <mxCell id="4qUPRxpnoBLBH63eIWVk-588" value="" style="rounded=0;whiteSpace=wrap;html=1;strokeWidth=2;" vertex="1" parent="4qUPRxpnoBLBH63eIWVk-587">
          <mxGeometry width="8.425531914893616" height="17.777777777777775" as="geometry" />
        </mxCell>
        <mxCell id="4qUPRxpnoBLBH63eIWVk-589" value="" style="rounded=0;whiteSpace=wrap;html=1;strokeWidth=2;" vertex="1" parent="4qUPRxpnoBLBH63eIWVk-587">
          <mxGeometry x="8.425531914893616" width="8.425531914893616" height="17.777777777777775" as="geometry" />
        </mxCell>
        <mxCell id="4qUPRxpnoBLBH63eIWVk-590" value="" style="rounded=0;whiteSpace=wrap;html=1;strokeWidth=2;" vertex="1" parent="4qUPRxpnoBLBH63eIWVk-587">
          <mxGeometry x="16.851063829787233" width="8.425531914893616" height="17.777777777777775" as="geometry" />
        </mxCell>
        <mxCell id="4qUPRxpnoBLBH63eIWVk-591" value="" style="rounded=0;whiteSpace=wrap;html=1;strokeWidth=2;" vertex="1" parent="4qUPRxpnoBLBH63eIWVk-587">
          <mxGeometry x="25.27659574468085" width="8.425531914893616" height="17.777777777777775" as="geometry" />
        </mxCell>
        <mxCell id="4qUPRxpnoBLBH63eIWVk-592" value="" style="rounded=0;whiteSpace=wrap;html=1;strokeWidth=2;" vertex="1" parent="4qUPRxpnoBLBH63eIWVk-587">
          <mxGeometry x="33.702127659574465" width="8.425531914893616" height="17.777777777777775" as="geometry" />
        </mxCell>
        <mxCell id="4qUPRxpnoBLBH63eIWVk-593" value="" style="rounded=0;whiteSpace=wrap;html=1;strokeWidth=2;" vertex="1" parent="4qUPRxpnoBLBH63eIWVk-587">
          <mxGeometry x="42.12765957446809" width="8.425531914893616" height="17.777777777777775" as="geometry" />
        </mxCell>
        <mxCell id="4qUPRxpnoBLBH63eIWVk-594" value="" style="rounded=0;whiteSpace=wrap;html=1;strokeWidth=2;" vertex="1" parent="4qUPRxpnoBLBH63eIWVk-587">
          <mxGeometry x="50.5531914893617" width="8.425531914893616" height="17.777777777777775" as="geometry" />
        </mxCell>
        <mxCell id="4qUPRxpnoBLBH63eIWVk-595" value="" style="rounded=0;whiteSpace=wrap;html=1;strokeWidth=2;" vertex="1" parent="4qUPRxpnoBLBH63eIWVk-587">
          <mxGeometry x="58.97872340425532" width="8.425531914893616" height="17.777777777777775" as="geometry" />
        </mxCell>
        <mxCell id="4qUPRxpnoBLBH63eIWVk-596" value="" style="rounded=0;whiteSpace=wrap;html=1;strokeWidth=2;" vertex="1" parent="4qUPRxpnoBLBH63eIWVk-587">
          <mxGeometry x="67.40425531914893" width="8.425531914893616" height="17.777777777777775" as="geometry" />
        </mxCell>
        <mxCell id="4qUPRxpnoBLBH63eIWVk-597" value="" style="rounded=0;whiteSpace=wrap;html=1;strokeWidth=2;" vertex="1" parent="4qUPRxpnoBLBH63eIWVk-587">
          <mxGeometry x="75.82978723404256" width="8.425531914893616" height="17.777777777777775" as="geometry" />
        </mxCell>
        <mxCell id="4qUPRxpnoBLBH63eIWVk-598" value="" style="rounded=0;whiteSpace=wrap;html=1;strokeWidth=2;" vertex="1" parent="4qUPRxpnoBLBH63eIWVk-587">
          <mxGeometry x="84.25531914893618" width="8.425531914893616" height="17.777777777777775" as="geometry" />
        </mxCell>
        <mxCell id="4qUPRxpnoBLBH63eIWVk-599" value="" style="rounded=0;whiteSpace=wrap;html=1;strokeWidth=2;" vertex="1" parent="4qUPRxpnoBLBH63eIWVk-587">
          <mxGeometry x="92.68085106382979" width="8.425531914893616" height="17.777777777777775" as="geometry" />
        </mxCell>
        <mxCell id="4qUPRxpnoBLBH63eIWVk-600" value="" style="rounded=0;whiteSpace=wrap;html=1;strokeWidth=2;" vertex="1" parent="4qUPRxpnoBLBH63eIWVk-587">
          <mxGeometry x="101.1063829787234" width="8.425531914893616" height="17.777777777777775" as="geometry" />
        </mxCell>
        <mxCell id="4qUPRxpnoBLBH63eIWVk-601" value="" style="rounded=0;whiteSpace=wrap;html=1;strokeWidth=2;" vertex="1" parent="4qUPRxpnoBLBH63eIWVk-587">
          <mxGeometry x="109.53191489361701" width="8.425531914893616" height="17.777777777777775" as="geometry" />
        </mxCell>
        <mxCell id="4qUPRxpnoBLBH63eIWVk-602" value="" style="rounded=0;whiteSpace=wrap;html=1;strokeWidth=2;" vertex="1" parent="4qUPRxpnoBLBH63eIWVk-587">
          <mxGeometry x="117.95744680851064" width="8.425531914893616" height="17.777777777777775" as="geometry" />
        </mxCell>
        <mxCell id="4qUPRxpnoBLBH63eIWVk-603" value="" style="rounded=0;whiteSpace=wrap;html=1;strokeWidth=2;" vertex="1" parent="4qUPRxpnoBLBH63eIWVk-587">
          <mxGeometry x="126.38297872340426" width="8.425531914893616" height="17.777777777777775" as="geometry" />
        </mxCell>
        <mxCell id="4qUPRxpnoBLBH63eIWVk-604" value="" style="endArrow=none;html=1;rounded=0;entryX=0.5;entryY=1;entryDx=0;entryDy=0;exitX=0.567;exitY=-0.008;exitDx=0;exitDy=0;exitPerimeter=0;" edge="1" parent="4qUPRxpnoBLBH63eIWVk-585" source="4qUPRxpnoBLBH63eIWVk-607" target="4qUPRxpnoBLBH63eIWVk-588">
          <mxGeometry width="50" height="50" relative="1" as="geometry">
            <mxPoint x="36.666666666666664" y="40" as="sourcePoint" />
            <mxPoint x="93.13333333333333" y="6.666666666666666" as="targetPoint" />
            <Array as="points">
              <mxPoint x="58.666666666666664" y="26.666666666666664" />
            </Array>
          </mxGeometry>
        </mxCell>
        <mxCell id="4qUPRxpnoBLBH63eIWVk-605" value="" style="ellipse;whiteSpace=wrap;html=1;strokeWidth=2;fillColor=default;" vertex="1" parent="4qUPRxpnoBLBH63eIWVk-585">
          <mxGeometry x="73.33" y="53.33" width="66.67" height="36.67" as="geometry" />
        </mxCell>
        <mxCell id="4qUPRxpnoBLBH63eIWVk-606" value="&lt;font face=&quot;Times New Roman&quot;&gt;0x01A48, &quot;cosa&quot;&lt;/font&gt;" style="text;html=1;align=center;verticalAlign=middle;whiteSpace=wrap;rounded=0;labelBackgroundColor=default;fontSize=8;" vertex="1" parent="4qUPRxpnoBLBH63eIWVk-585">
          <mxGeometry x="66.53999999999999" y="60" width="80.25" height="23.33" as="geometry" />
        </mxCell>
        <mxCell id="4qUPRxpnoBLBH63eIWVk-607" value="" style="ellipse;whiteSpace=wrap;html=1;strokeWidth=2;" vertex="1" parent="4qUPRxpnoBLBH63eIWVk-585">
          <mxGeometry y="40" width="66" height="26.666666666666664" as="geometry" />
        </mxCell>
        <mxCell id="4qUPRxpnoBLBH63eIWVk-608" value="&lt;font face=&quot;Times New Roman&quot;&gt;0x00567, &quot;ciao&quot;&lt;/font&gt;" style="text;html=1;align=center;verticalAlign=middle;whiteSpace=wrap;rounded=0;labelBackgroundColor=default;fontSize=8;" vertex="1" parent="4qUPRxpnoBLBH63eIWVk-585">
          <mxGeometry x="-4.25" y="43.33" width="74.5" height="20" as="geometry" />
        </mxCell>
        <mxCell id="4qUPRxpnoBLBH63eIWVk-609" value="" style="endArrow=none;html=1;rounded=0;entryX=0.5;entryY=1;entryDx=0;entryDy=0;exitX=0.5;exitY=0;exitDx=0;exitDy=0;" edge="1" parent="4qUPRxpnoBLBH63eIWVk-585" source="4qUPRxpnoBLBH63eIWVk-605" target="4qUPRxpnoBLBH63eIWVk-589">
          <mxGeometry width="50" height="50" relative="1" as="geometry">
            <mxPoint x="109.99999999999999" y="60" as="sourcePoint" />
            <mxPoint x="188.01418439716312" y="53.33333333333333" as="targetPoint" />
            <Array as="points">
              <mxPoint x="109.99999999999999" y="33.33333333333333" />
            </Array>
          </mxGeometry>
        </mxCell>
        <mxCell id="4qUPRxpnoBLBH63eIWVk-610" value="" style="group" vertex="1" connectable="0" parent="4qUPRxpnoBLBH63eIWVk-585">
          <mxGeometry x="264" y="43.33" width="76" height="36.67" as="geometry" />
        </mxCell>
        <mxCell id="4qUPRxpnoBLBH63eIWVk-611" value="" style="ellipse;whiteSpace=wrap;html=1;strokeWidth=2;" vertex="1" parent="4qUPRxpnoBLBH63eIWVk-610">
          <mxGeometry width="76" height="36.67" as="geometry" />
        </mxCell>
        <mxCell id="4qUPRxpnoBLBH63eIWVk-612" value="&lt;font face=&quot;Times New Roman&quot;&gt;0x&lt;span style=&quot;background-color: rgb(255, 51, 51);&quot;&gt;0F&lt;/span&gt;&lt;span style=&quot;background-color: rgb(0, 0, 255);&quot;&gt;555&lt;/span&gt;, &quot;dì&quot;&lt;/font&gt;" style="text;html=1;align=center;verticalAlign=middle;whiteSpace=wrap;rounded=0;labelBackgroundColor=default;fontSize=10;" vertex="1" parent="4qUPRxpnoBLBH63eIWVk-610">
          <mxGeometry x="8.333333333333334" y="4.58375" width="61.22222222222222" height="27.502500000000005" as="geometry" />
        </mxCell>
        <mxCell id="4qUPRxpnoBLBH63eIWVk-613" value="" style="endArrow=none;html=1;rounded=0;entryX=0.5;entryY=1;entryDx=0;entryDy=0;exitX=0.5;exitY=0;exitDx=0;exitDy=0;" edge="1" parent="4qUPRxpnoBLBH63eIWVk-585" source="4qUPRxpnoBLBH63eIWVk-611" target="4qUPRxpnoBLBH63eIWVk-603">
          <mxGeometry width="50" height="50" relative="1" as="geometry">
            <mxPoint x="289.12056737588654" y="31.111111111111086" as="sourcePoint" />
            <mxPoint x="209.07801418439718" y="44.444444444444414" as="targetPoint" />
            <Array as="points">
              <mxPoint x="286" y="26.666666666666664" />
            </Array>
          </mxGeometry>
        </mxCell>
        <mxCell id="4qUPRxpnoBLBH63eIWVk-614" value="" style="endArrow=none;dashed=1;html=1;dashPattern=1 3;strokeWidth=2;rounded=0;" edge="1" parent="4qUPRxpnoBLBH63eIWVk-585">
          <mxGeometry width="50" height="50" relative="1" as="geometry">
            <mxPoint x="154" y="60" as="sourcePoint" />
            <mxPoint x="249.33333333333331" y="60" as="targetPoint" />
          </mxGeometry>
        </mxCell>
        <mxCell id="4qUPRxpnoBLBH63eIWVk-635" value="" style="ellipse;whiteSpace=wrap;html=1;strokeWidth=2;" vertex="1" parent="1">
          <mxGeometry x="403.75" y="240" width="66" height="26.666666666666664" as="geometry" />
        </mxCell>
        <mxCell id="4qUPRxpnoBLBH63eIWVk-636" value="&lt;font face=&quot;Times New Roman&quot;&gt;0x10610, &quot;cane&quot;&lt;/font&gt;" style="text;html=1;align=center;verticalAlign=middle;whiteSpace=wrap;rounded=0;labelBackgroundColor=default;fontSize=8;" vertex="1" parent="1">
          <mxGeometry x="400" y="243.32999999999993" width="74.5" height="20" as="geometry" />
        </mxCell>
        <mxCell id="4qUPRxpnoBLBH63eIWVk-554" value="" style="endArrow=none;html=1;rounded=0;entryX=0.5;entryY=1;entryDx=0;entryDy=0;exitX=0.5;exitY=0;exitDx=0;exitDy=0;" edge="1" parent="1" target="4qUPRxpnoBLBH63eIWVk-539" source="4qUPRxpnoBLBH63eIWVk-635">
          <mxGeometry width="50" height="50" relative="1" as="geometry">
            <mxPoint x="430" y="230" as="sourcePoint" />
            <mxPoint x="540" y="230" as="targetPoint" />
            <Array as="points">
              <mxPoint x="340" y="200" />
            </Array>
          </mxGeometry>
        </mxCell>
        <mxCell id="4qUPRxpnoBLBH63eIWVk-638" value="" style="endArrow=classic;html=1;rounded=0;strokeColor=#FF3333;" edge="1" parent="1">
          <mxGeometry width="50" height="50" relative="1" as="geometry">
            <mxPoint x="337" y="289" as="sourcePoint" />
            <mxPoint x="320" y="320" as="targetPoint" />
          </mxGeometry>
        </mxCell>
        <mxCell id="4qUPRxpnoBLBH63eIWVk-639" value="" style="endArrow=classic;html=1;rounded=0;strokeColor=#0000FF;" edge="1" parent="1">
          <mxGeometry width="50" height="50" relative="1" as="geometry">
            <mxPoint x="351" y="289" as="sourcePoint" />
            <mxPoint x="374" y="319" as="targetPoint" />
          </mxGeometry>
        </mxCell>
        <mxCell id="4qUPRxpnoBLBH63eIWVk-640" value="&lt;font face=&quot;Times New Roman&quot; style=&quot;font-size: 10px;&quot;&gt;version&lt;/font&gt;" style="text;html=1;align=center;verticalAlign=middle;whiteSpace=wrap;rounded=0;labelBackgroundColor=default;fontSize=8;fontColor=#FF3333;" vertex="1" parent="1">
          <mxGeometry x="300" y="322" width="40" height="10" as="geometry" />
        </mxCell>
        <mxCell id="4qUPRxpnoBLBH63eIWVk-641" value="&lt;font face=&quot;Times New Roman&quot; color=&quot;#0000ff&quot;&gt;&lt;span style=&quot;font-size: 10px;&quot;&gt;nibblePath&lt;/span&gt;&lt;/font&gt;" style="text;html=1;align=center;verticalAlign=middle;whiteSpace=wrap;rounded=0;labelBackgroundColor=default;fontSize=8;fontColor=#FF3333;" vertex="1" parent="1">
          <mxGeometry x="360" y="322" width="40" height="10" as="geometry" />
        </mxCell>
        <mxCell id="4qUPRxpnoBLBH63eIWVk-768" value="" style="shape=flexArrow;endArrow=classic;html=1;rounded=0;strokeWidth=2;strokeColor=#FF3333;" edge="1" parent="1">
          <mxGeometry width="50" height="50" relative="1" as="geometry">
            <mxPoint x="560" y="240" as="sourcePoint" />
            <mxPoint x="560" y="400" as="targetPoint" />
          </mxGeometry>
        </mxCell>
        <mxCell id="4qUPRxpnoBLBH63eIWVk-770" value="JmtInsert(0x11C48,&quot;gatto&quot;)" style="text;html=1;align=center;verticalAlign=middle;whiteSpace=wrap;rounded=0;fontFamily=Times New Roman;fontSize=17;fontColor=#FF3333;" vertex="1" parent="1">
          <mxGeometry x="580" y="302" width="200" height="20" as="geometry" />
        </mxCell>
        <mxCell id="4qUPRxpnoBLBH63eIWVk-771" value="" style="endArrow=classic;html=1;rounded=0;fillColor=#ffe6cc;strokeColor=#d79b00;" edge="1" parent="1">
          <mxGeometry width="50" height="50" relative="1" as="geometry">
            <mxPoint x="140" y="517" as="sourcePoint" />
            <mxPoint x="190" y="567" as="targetPoint" />
          </mxGeometry>
        </mxCell>
        <mxCell id="4qUPRxpnoBLBH63eIWVk-772" value="&lt;font style=&quot;font-size: 10px; color: rgb(204, 102, 0);&quot; face=&quot;Times New Roman&quot;&gt;Per ricostruire la radice precedente si sfrutta il fatto che la prova sia sottoinsieme di quella mostrata&amp;nbsp;&lt;/font&gt;" style="text;html=1;align=center;verticalAlign=middle;whiteSpace=wrap;rounded=0;labelBackgroundColor=default;fontSize=8;" vertex="1" parent="1">
          <mxGeometry x="70" y="480" width="130" height="23.33" as="geometry" />
        </mxCell>
      </root>
    </mxGraphModel>
  </diagram>
</mxfile>
